<?xml version="1.0" encoding="UTF-8"?>
<svg version="1.1" xmlns="http://www.w3.org/2000/svg" width="48" height="41">
<path d="M0 0 C0.33 0.474375 0.66 0.94875 1 1.4375 C3.56099276 3.43827559 5.76557728 3.34848254 8.92578125 3.6171875 C12.27163353 4.23468943 14.3377307 5.9367413 17 8 C17.721875 7.38125 18.44375 6.7625 19.1875 6.125 C21.89154844 4.08194118 23.74298989 2.86271994 27 2 C29.45703125 3.046875 29.45703125 3.046875 31.8125 4.75 C32.60269531 5.30171875 33.39289062 5.8534375 34.20703125 6.421875 C34.79871094 6.94265625 35.39039063 7.4634375 36 8 C36 8.66 36 9.32 36 10 C36.99 9.67 37.98 9.34 39 9 C38.566875 9.99 38.566875 9.99 38.125 11 C37.22630212 13.39652769 36.68744278 15.45683151 36.1875 17.9375 C35.46746189 21.04595721 34.50632962 22.87852057 32.375 25.25 C29.56425342 27.89894693 29.56425342 27.89894693 30 32 C28.68 32 27.36 32 26 32 C25.34 32.66 24.68 33.32 24 34 C24.33 34.66 24.66 35.32 25 36 C24.38125 36.12375 23.7625 36.2475 23.125 36.375 C20.80879168 36.87197356 20.80879168 36.87197356 19 39 C14.83346172 37.31735954 11.59528876 35.69646657 8 33 C7.01 33 6.02 33 5 33 C5 32.34 5 31.68 5 31 C4.01 30.67 3.02 30.34 2 30 C1.27095914 28.35965807 0.61344757 26.68698082 0 25 C-0.53625 24.278125 -1.0725 23.55625 -1.625 22.8125 C-3.67389704 18.62157425 -3.24038934 14.58520413 -3 10 C-3.66 9.67 -4.32 9.34 -5 9 C-4.814375 8.38125 -4.62875 7.7625 -4.4375 7.125 C-3.76313824 4.95839822 -3.76313824 4.95839822 -5 3 C-3.68 3 -2.36 3 -1 3 C-0.67 2.01 -0.34 1.02 0 0 Z " fill="#D62929" transform="translate(8,2)"/>
<path d="M0 0 C1.32 1.65 2.64 3.3 4 5 C3.01 5.495 3.01 5.495 2 6 C2.33 9.3 2.66 12.6 3 16 C3.66 16 4.32 16 5 16 C5 14.68 5 13.36 5 12 C9.51815281 11.11722245 13.77512694 10.89410497 18.375 10.9375 C20.24285156 10.95103516 20.24285156 10.95103516 22.1484375 10.96484375 C23.55996094 10.98224609 23.55996094 10.98224609 25 11 C25 10.34 25 9.68 25 9 C26.98 8.67 28.96 8.34 31 8 C31 9.65 31 11.3 31 13 C30.34 13 29.68 13 29 13 C28.67 13.99 28.34 14.98 28 16 C28.99 16 29.98 16 31 16 C31 16.99 31 17.98 31 19 C29.56359829 19.19573608 28.12580496 19.38127816 26.6875 19.5625 C25.88699219 19.66691406 25.08648437 19.77132813 24.26171875 19.87890625 C22 20 22 20 19 19 C16.43365139 18.77281504 13.88321893 18.58391816 11.3125 18.4375 C10.2596582 18.37272461 10.2596582 18.37272461 9.18554688 18.30664062 C7.45724794 18.2008264 5.7286489 18.09993419 4 18 C3.34 19.32 2.68 20.64 2 22 C0.68 21.01 -0.64 20.02 -2 19 C-1.01 15.535 -1.01 15.535 0 12 C-2.475 11.01 -2.475 11.01 -5 10 C-4.7215625 8.824375 -4.7215625 8.824375 -4.4375 7.625 C-3.74037734 5.02910225 -3.74037734 5.02910225 -5 3 C-3.68 3 -2.36 3 -1 3 C-0.67 2.01 -0.34 1.02 0 0 Z " fill="#EC6969" transform="translate(8,2)"/>
<path d="M0 0 C0.99 0.33 1.98 0.66 3 1 C2.67 3.31 2.34 5.62 2 8 C2.99 8.66 3.98 9.32 5 10 C5.66 9.01 6.32 8.02 7 7 C8.90771484 6.62768555 8.90771484 6.62768555 11.2109375 6.63671875 C12.04367188 6.63736328 12.87640625 6.63800781 13.734375 6.63867188 C14.60578125 6.65478516 15.4771875 6.67089844 16.375 6.6875 C17.23867188 6.68427734 18.10234375 6.68105469 18.9921875 6.67773438 C23.27945956 6.71412326 26.20931018 6.83781119 30 9 C30 9.66 30 10.32 30 11 C29.38511719 11.06058594 28.77023438 11.12117188 28.13671875 11.18359375 C26.92435547 11.30927734 26.92435547 11.30927734 25.6875 11.4375 C24.88699219 11.51871094 24.08648438 11.59992187 23.26171875 11.68359375 C20.83912821 11.95265693 20.83912821 11.95265693 18 13 C15.80859375 12.9140625 15.80859375 12.9140625 13.4375 12.625 C12.65246094 12.53476562 11.86742187 12.44453125 11.05859375 12.3515625 C9 12 9 12 7 11 C7.15366857 13.68919992 7.44076949 15.45167371 9.40234375 17.375 C10.93329933 18.58535547 12.46654535 19.79281229 14 21 C14 21.66 14 22.32 14 23 C12.02 22.67 10.04 22.34 8 22 C8 21.34 8 20.68 8 20 C7.01 19.67 6.02 19.34 5 19 C4.27095914 17.35965807 3.61344757 15.68698082 3 14 C2.195625 12.88625 2.195625 12.88625 1.375 11.75 C-0.57840873 7.84318254 -0.25231546 4.28936274 0 0 Z " fill="#DB3E3E" transform="translate(5,13)"/>
<path d="M0 0 C2.5 1.625 2.5 1.625 4 3 C4.6496875 2.2575 4.6496875 2.2575 5.3125 1.5 C7 0 7 0 10 0 C10.66 1.98 11.32 3.96 12 6 C5.4 6.33 -1.2 6.66 -8 7 C-8 8.32 -8 9.64 -8 11 C-8.66 11 -9.32 11 -10 11 C-11.57878625 7.54640508 -12.60112 4.80709336 -12 1 C-8.60488237 -3.38536028 -4.53386071 -1.78381405 0 0 Z " fill="#CA2122" transform="translate(21,7)"/>
<path d="M0 0 C1.15737708 0.73206033 2.30373384 1.48188 3.4375 2.25 C4.4275 2.91 5.4175 3.57 6.4375 4.25 C6.4375 4.91 6.4375 5.57 6.4375 6.25 C7.4275 5.92 8.4175 5.59 9.4375 5.25 C9.004375 6.24 9.004375 6.24 8.5625 7.25 C7.65101663 9.68062231 7.01492392 11.92158151 6.4375 14.4375 C5.4375 18.25 5.4375 18.25 3.4375 20.25 C2.4475 19.92 1.4575 19.59 0.4375 19.25 C-0.25 17.1875 -0.25 17.1875 -0.5625 15.25 C0.0975 15.25 0.7575 15.25 1.4375 15.25 C1.4375 14.26 1.4375 13.27 1.4375 12.25 C0.4475 12.25 -0.5425 12.25 -1.5625 12.25 C-1.2325 10.93 -0.9025 9.61 -0.5625 8.25 C0.0975 8.58 0.7575 8.91 1.4375 9.25 C1.4375 7.6 1.4375 5.95 1.4375 4.25 C-0.8725 4.58 -3.1825 4.91 -5.5625 5.25 C-6.2225 3.6 -6.8825 1.95 -7.5625 0.25 C-4.41951123 -2.26439101 -3.71602897 -1.82541774 0 0 Z " fill="#D33232" transform="translate(37.5625,5.75)"/>
<path d="M0 0 C1.32 1.65 2.64 3.3 4 5 C3.01 5.495 3.01 5.495 2 6 C2.33 8.64 2.66 11.28 3 14 C2.34 14 1.68 14 1 14 C1.33 16.31 1.66 18.62 2 21 C0.68 20.34 -0.64 19.68 -2 19 C-1.01 15.535 -1.01 15.535 0 12 C-2.475 11.01 -2.475 11.01 -5 10 C-4.7215625 8.824375 -4.7215625 8.824375 -4.4375 7.625 C-3.74037734 5.02910225 -3.74037734 5.02910225 -5 3 C-3.68 3 -2.36 3 -1 3 C-0.67 2.01 -0.34 1.02 0 0 Z " fill="#E15353" transform="translate(8,2)"/>
<path d="M0 0 C0.66 0 1.32 0 2 0 C2.64388672 0.95132812 2.64388672 0.95132812 3.30078125 1.921875 C5.46744979 4.57168572 6.85594928 4.73079729 10.1875 5.25 C11.08855469 5.39953125 11.98960938 5.5490625 12.91796875 5.703125 C13.60503906 5.80109375 14.29210938 5.8990625 15 6 C15 6.99 15 7.98 15 9 C11.37 9 7.74 9 4 9 C3.67 8.01 3.34 7.02 3 6 C2.01 5.67 1.02 5.34 0 5 C0 3.35 0 1.7 0 0 Z " fill="#C41314" transform="translate(12,24)"/>
<path d="M0 0 C2 3 2 3 2 5 C0.68 5 -0.64 5 -2 5 C-2.66 5.66 -3.32 6.32 -4 7 C-3.67 7.66 -3.34 8.32 -3 9 C-3.61875 9.12375 -4.2375 9.2475 -4.875 9.375 C-7.19120832 9.87197356 -7.19120832 9.87197356 -9 12 C-9.66 11.67 -10.32 11.34 -11 11 C-10.66275164 7.88045262 -10.3790035 6.3790035 -8.125 4.125 C-7.42375 3.75375 -6.7225 3.3825 -6 3 C-5.01 3.33 -4.02 3.66 -3 4 C-3 3.01 -3 2.02 -3 1 C-2.01 0.67 -1.02 0.34 0 0 Z " fill="#E14747" transform="translate(36,29)"/>
<path d="M0 0 C3.08315385 -0.08733513 6.16598827 -0.14050127 9.25 -0.1875 C10.12269531 -0.21263672 10.99539062 -0.23777344 11.89453125 -0.26367188 C18.41598332 -0.33834499 18.41598332 -0.33834499 21.609375 1.51171875 C22.06828125 2.00285156 22.5271875 2.49398438 23 3 C21.37509046 3.02698189 19.75005367 3.04638757 18.125 3.0625 C16.76761719 3.07990234 16.76761719 3.07990234 15.3828125 3.09765625 C13 3 13 3 11 2 C11 2.66 11 3.32 11 4 C9.54054712 3.91291331 8.08234132 3.80473093 6.625 3.6875 C5.81289063 3.62949219 5.00078125 3.57148438 4.1640625 3.51171875 C2 3 2 3 0 0 Z " fill="#DF4C4C" transform="translate(12,20)"/>
<path d="M0 0 C0.66 0.33 1.32 0.66 2 1 C2 1.99 2 2.98 2 4 C2.99 4 3.98 4 5 4 C4.1875 5.9375 4.1875 5.9375 3 8 C0 9 0 9 -3 9 C-3 9.99 -3 10.98 -3 12 C-3.66 12 -4.32 12 -5 12 C-4.42365861 7.24518354 -2.44931479 4.02951788 0 0 Z " fill="#B91414" transform="translate(36,21)"/>
<path d="M0 0 C5.94 0.99 5.94 0.99 12 2 C12 2.66 12 3.32 12 4 C9.29120665 5.35439668 6.99066732 5.06501451 4 5 C4 6.32 4 7.64 4 9 C3.34 9 2.68 9 2 9 C0.50178941 5.62902617 0 3.79557881 0 0 Z " fill="#C61D1D" transform="translate(9,9)"/>
<path d="M0 0 C1.32 1.65 2.64 3.3 4 5 C1.69 6.65 -0.62 8.3 -3 10 C-3.66 9.67 -4.32 9.34 -5 9 C-4.814375 8.38125 -4.62875 7.7625 -4.4375 7.125 C-3.76313824 4.95839822 -3.76313824 4.95839822 -5 3 C-3.68 3 -2.36 3 -1 3 C-0.67 2.01 -0.34 1.02 0 0 Z " fill="#F7ADAD" transform="translate(8,2)"/>
<path d="M0 0 C0.598125 0.20625 1.19625 0.4125 1.8125 0.625 C1.8125 2.275 1.8125 3.925 1.8125 5.625 C-0.4975 5.295 -2.8075 4.965 -5.1875 4.625 C-5.1875 3.635 -5.1875 2.645 -5.1875 1.625 C-2.1875 -0.375 -2.1875 -0.375 0 0 Z " fill="#E04D4D" transform="translate(15.1875,5.375)"/>
<path d="M0 0 C2.97 0 5.94 0 9 0 C8.34 1.32 7.68 2.64 7 4 C4.69 3.67 2.38 3.34 0 3 C0 2.01 0 1.02 0 0 Z " fill="#D73333" transform="translate(26,24)"/>
<path d="M0 0 C0 1.65 0 3.3 0 5 C-1.32 5.33 -2.64 5.66 -4 6 C-4 5.34 -4 4.68 -4 4 C-6.31 4 -8.62 4 -11 4 C-11 3.67 -11 3.34 -11 3 C-9.35 3 -7.7 3 -6 3 C-6 2.34 -6 1.68 -6 1 C-3 0 -3 0 0 0 Z " fill="#E85656" transform="translate(39,10)"/>
<path d="M0 0 C4.28806873 0.47645208 6.26647487 1.65902484 9 5 C9 5.66 9 6.32 9 7 C6.03 6.505 6.03 6.505 3 6 C3 5.34 3 4.68 3 4 C2.01 3.67 1.02 3.34 0 3 C0 2.01 0 1.02 0 0 Z " fill="#EA7575" transform="translate(10,29)"/>
<path d="M0 0 C0.99 0.33 1.98 0.66 3 1 C2.79375 2.11375 2.5875 3.2275 2.375 4.375 C2.25125 5.57125 2.1275 6.7675 2 8 C2.66 8.66 3.32 9.32 4 10 C4 10.99 4 11.98 4 13 C3.34 13 2.68 13 2 13 C0.21590198 9.93753253 -0.22880021 7.77920727 -0.125 4.25 C-0.10695313 3.45078125 -0.08890625 2.6515625 -0.0703125 1.828125 C-0.04710937 1.22484375 -0.02390625 0.6215625 0 0 Z " fill="#C01B1B" transform="translate(5,13)"/>
<path d="M0 0 C0.66 0 1.32 0 2 0 C2 0.66 2 1.32 2 2 C3.32 2.66 4.64 3.32 6 4 C5.38125 4.12375 4.7625 4.2475 4.125 4.375 C1.80879168 4.87197356 1.80879168 4.87197356 0 7 C-0.66 6.67 -1.32 6.34 -2 6 C-1.125 1.125 -1.125 1.125 0 0 Z " fill="#F38282" transform="translate(27,34)"/>
<path d="M0 0 C1.32 0.66 2.64 1.32 4 2 C4 3.32 4 4.64 4 6 C2.02 6.99 2.02 6.99 0 8 C-0.33 7.01 -0.66 6.02 -1 5 C-0.34 5 0.32 5 1 5 C0.67 3.35 0.34 1.7 0 0 Z " fill="#E45253" transform="translate(38,16)"/>
<path d="M0 0 C0.99 0.66 1.98 1.32 3 2 C1.33333333 3.66666667 -0.33333333 5.33333333 -2 7 C-2.66 5.35 -3.32 3.7 -4 2 C-2.68 1.34 -1.36 0.68 0 0 Z " fill="#EE5E5E" transform="translate(34,4)"/>
<path d="M0 0 C0.99 0 1.98 0 3 0 C2.67 1.32 2.34 2.64 2 4 C0.68 4.33 -0.64 4.66 -2 5 C-1.34 3.35 -0.68 1.7 0 0 Z " fill="#C11818" transform="translate(35,6)"/>
<path d="M0 0 C2.31 0 4.62 0 7 0 C7.33 0.99 7.66 1.98 8 3 C5.125 3.1875 5.125 3.1875 2 3 C1.34 2.01 0.68 1.02 0 0 Z " fill="#E45858" transform="translate(28,19)"/>
<path d="M0 0 C0.99 0.33 1.98 0.66 3 1 C3 1.66 3 2.32 3 3 C2.01 3.33 1.02 3.66 0 4 C0 2.68 0 1.36 0 0 Z " fill="#FBC6C6" transform="translate(40,36)"/>
<path d="M0 0 C0.99 0.33 1.98 0.66 3 1 C3 1.66 3 2.32 3 3 C2.01 3.33 1.02 3.66 0 4 C0 2.68 0 1.36 0 0 Z " fill="#F88F8F" transform="translate(3,31)"/>
<path d="M0 0 C0.66 0.33 1.32 0.66 2 1 C2 1.99 2 2.98 2 4 C1.01 4 0.02 4 -1 4 C-0.67 2.68 -0.34 1.36 0 0 Z " fill="#F29F9F" transform="translate(46,19)"/>
<path d="M0 0 C0.66 0.33 1.32 0.66 2 1 C1.67 1.99 1.34 2.98 1 4 C0.01 3.67 -0.98 3.34 -2 3 C-2 2.34 -2 1.68 -2 1 C-1.34 0.67 -0.68 0.34 0 0 Z " fill="#FC8D8D" transform="translate(2,16)"/>
<path d="M0 0 C0.66 0.33 1.32 0.66 2 1 C1.67 1.99 1.34 2.98 1 4 C0.34 3.67 -0.32 3.34 -1 3 C-0.67 2.01 -0.34 1.02 0 0 Z " fill="#F2C0C0" transform="translate(23,4)"/>
<path d="M0 0 C0.99 0 1.98 0 3 0 C3 0.66 3 1.32 3 2 C2.01 2 1.02 2 0 2 C0 1.34 0 0.68 0 0 Z " fill="#FEC6C6" transform="translate(40,4)"/>
<path d="M0 0 C0.66 0 1.32 0 2 0 C1.67 0.99 1.34 1.98 1 3 C0.67 2.01 0.34 1.02 0 0 Z " fill="#ED9494" transform="translate(4,25)"/>
<path d="M0 0 C0.66 0 1.32 0 2 0 C2 0.66 2 1.32 2 2 C1.34 2 0.68 2 0 2 C0 1.34 0 0.68 0 0 Z " fill="#FEBFBF" transform="translate(10,35)"/>
<path d="M0 0 C0.66 0.66 1.32 1.32 2 2 C1.01 2.495 1.01 2.495 0 3 C0 2.01 0 1.02 0 0 Z " fill="#FC9898" transform="translate(0,9)"/>
<path d="M0 0 C0.66 0.66 1.32 1.32 2 2 C1.01 2.495 1.01 2.495 0 3 C0 2.01 0 1.02 0 0 Z " fill="#FC9C9C" transform="translate(29,3)"/>
<path d="M0 0 C0.66 0 1.32 0 2 0 C2 0.66 2 1.32 2 2 C1.34 2 0.68 2 0 2 C0 1.34 0 0.68 0 0 Z " fill="#F4C4C4" transform="translate(16,2)"/>
<path d="M0 0 C0.66 0.66 1.32 1.32 2 2 C1.34 2 0.68 2 0 2 C0 1.34 0 0.68 0 0 Z " fill="#FE7A7A" transform="translate(46,33)"/>
<path d="M0 0 C0.66 0 1.32 0 2 0 C1.67 0.66 1.34 1.32 1 2 C0.67 1.34 0.34 0.68 0 0 Z " fill="#FAC2C2" transform="translate(23,0)"/>
<path d="" fill="#FFA8A8" transform="translate(0,0)"/>
<path d="" fill="#FFAAAA" transform="translate(0,0)"/>
</svg>
